<svg width="231" height="27" viewBox="0 0 231 27" fill="none" xmlns="http://www.w3.org/2000/svg">
<path d="M104.891 0.703125H114.75V15.4219C114.75 16.3073 114.964 17.0521 115.391 17.6562C115.818 18.25 116.51 18.5469 117.469 18.5469C118.427 18.5469 119.12 18.2396 119.547 17.625C119.974 17 120.188 16.2448 120.188 15.3594V0.703125H128.828V15.7031C128.828 19.2865 127.839 21.9427 125.859 23.6719C123.891 25.401 121.042 26.2656 117.312 26.2656C113.25 26.2656 110.161 25.401 108.047 23.6719C105.943 21.9427 104.891 19.2865 104.891 15.7031V0.703125Z" fill="#FF383C"/>
<path d="M82.2031 17.375C82.2656 17.3854 82.5573 17.4792 83.0781 17.6562C83.6094 17.8229 84.25 18.0156 85 18.2344C85.75 18.4427 86.5 18.6302 87.25 18.7969C88.0104 18.9531 88.6562 19.0312 89.1875 19.0312C89.6458 19.0312 90.0208 18.9635 90.3125 18.8281C90.6042 18.6927 90.75 18.4427 90.75 18.0781C90.75 17.6823 90.5417 17.3229 90.125 17C89.7083 16.6771 89.1719 16.3438 88.5156 16C87.8698 15.6562 87.1771 15.2656 86.4375 14.8281C85.7083 14.3906 85.0156 13.8646 84.3594 13.25C83.7135 12.6354 83.1823 11.901 82.7656 11.0469C82.349 10.1823 82.1406 9.15104 82.1406 7.95312C82.1406 6.48438 82.4479 5.24479 83.0625 4.23438C83.6771 3.21354 84.5 2.39583 85.5312 1.78125C86.5729 1.15625 87.7396 0.703125 89.0312 0.421875C90.3333 0.140625 91.6667 0 93.0312 0C94.1875 0 95.2812 0.0625 96.3125 0.1875C97.3438 0.3125 98.2135 0.447917 98.9219 0.59375C99.6406 0.739583 100.094 0.838542 100.281 0.890625V8.0625C100.281 8.0625 100.062 8.01562 99.625 7.92188C99.1979 7.82812 98.6562 7.72396 98 7.60938C97.3542 7.49479 96.6823 7.39062 95.9844 7.29688C95.2969 7.20312 94.6927 7.15625 94.1719 7.15625C93.6927 7.15625 93.3333 7.23958 93.0938 7.40625C92.8542 7.57292 92.7344 7.77083 92.7344 8C92.7344 8.1875 92.8385 8.39583 93.0469 8.625C93.2552 8.84375 93.5052 9.01562 93.7969 9.14062C94.8906 9.61979 95.9219 10.1094 96.8906 10.6094C97.8594 11.1094 98.7135 11.6875 99.4531 12.3438C100.193 13 100.771 13.8021 101.188 14.75C101.615 15.6875 101.828 16.8385 101.828 18.2031C101.828 19.8281 101.417 21.2448 100.594 22.4531C99.7812 23.6615 98.6042 24.599 97.0625 25.2656C95.5312 25.9323 93.6823 26.2656 91.5156 26.2656C89.651 26.2656 88.1146 26.1771 86.9062 26C85.6979 25.8229 84.75 25.625 84.0625 25.4062C83.375 25.1771 82.8906 24.974 82.6094 24.7969C82.3385 24.6198 82.2031 24.5312 82.2031 24.5312V17.375Z" fill="#FF383C"/>
<path d="M52.5938 25.6562V0.703125C52.5938 0.703125 52.9167 0.682292 53.5625 0.640625C54.2188 0.588542 55.0729 0.526042 56.125 0.453125C57.1875 0.380208 58.3438 0.3125 59.5938 0.25C60.8542 0.177083 62.099 0.119792 63.3281 0.078125C64.5677 0.0260417 65.6719 0 66.6406 0C68.6615 0 70.375 0.265625 71.7812 0.796875C73.1875 1.31771 74.3229 2.01042 75.1875 2.875C76.0521 3.73958 76.6823 4.69271 77.0781 5.73438C77.4844 6.77604 77.6875 7.81771 77.6875 8.85938C77.6875 10.6823 77.224 12.25 76.2969 13.5625C75.3698 14.8646 74.1875 15.9427 72.75 16.7969L79.5312 25.6562H67.1875L62.7969 18.4219V25.6562H52.5938ZM62.7344 13.875C64.7552 13.125 66.2031 12.3125 67.0781 11.4375C67.9635 10.5521 68.4062 9.60417 68.4062 8.59375C68.4062 7.75 68.25 7.17188 67.9375 6.85938C67.625 6.54688 67.2344 6.39062 66.7656 6.39062C66.4635 6.39062 66.151 6.44271 65.8281 6.54688C65.5052 6.64062 65.1667 6.76042 64.8125 6.90625L62.7344 7.76562V13.875Z" fill="#FF383C"/>
<path d="M30.3438 0.703125H48.3281V7.89062H40.0625V9.9375H48.2969V16.0625H40.0625V18.4219H48.875V25.6562H30.3438V0.703125Z" fill="#FF383C"/>
<path d="M11.3281 0.703125L15.2188 8.53125L18.8438 0.703125H28L15.7344 25.625C15.6094 25.8646 15.4115 26.0521 15.1406 26.1875C14.8802 26.3229 14.6094 26.3906 14.3281 26.3906C14.0365 26.3906 13.7604 26.3281 13.5 26.2031C13.25 26.0781 13.0573 25.8854 12.9219 25.625L0 0.703125H11.3281Z" fill="#FF383C"/>
<path d="M142.906 0C144.062 0 145.156 0.0625 146.188 0.1875C146.503 0.225712 146.803 0.265505 147.088 0.305664L144.097 7.15723C144.08 7.15713 144.063 7.15625 144.047 7.15625C143.568 7.15625 143.208 7.23958 142.969 7.40625C142.729 7.57292 142.609 7.77083 142.609 8C142.609 8.1875 142.714 8.39583 142.922 8.625C143.039 8.74816 143.171 8.8548 143.314 8.94824L140.542 15.2998L140.173 16.1445L141.082 15.9932L149.364 14.6123L147.22 25.1387C147.127 25.182 147.033 25.2243 146.938 25.2656C145.406 25.9323 143.557 26.2656 141.391 26.2656C139.526 26.2656 137.99 26.1771 136.781 26C135.573 25.8229 134.625 25.625 133.938 25.4062C133.25 25.1771 132.766 24.974 132.484 24.7969L132.078 24.5312V17.375C132.141 17.3854 132.432 17.4792 132.953 17.6562C133.484 17.8229 134.125 18.0156 134.875 18.2344C135.625 18.4427 136.375 18.6302 137.125 18.7969C137.885 18.9531 138.531 19.0312 139.062 19.0312C139.521 19.0312 139.896 18.9635 140.188 18.8281C140.479 18.6927 140.625 18.4427 140.625 18.0781C140.625 17.6823 140.417 17.3229 140 17C139.583 16.6771 139.047 16.3438 138.391 16C137.745 15.6562 137.052 15.2656 136.312 14.8281C135.583 14.3906 134.891 13.8646 134.234 13.25C133.589 12.6354 133.057 11.901 132.641 11.0469C132.224 10.1823 132.016 9.15104 132.016 7.95312C132.016 6.48438 132.323 5.24479 132.938 4.23438C133.552 3.21354 134.375 2.39583 135.406 1.78125C136.448 1.15625 137.615 0.703125 138.906 0.421875C140.208 0.140625 141.542 0 142.906 0Z" fill="#FF383C"/>
<path d="M160.875 0.296875C162.031 0.296875 163.125 0.359375 164.156 0.484375C165.188 0.609375 166.057 0.744792 166.766 0.890625C167.484 1.03646 167.938 1.13542 168.125 1.1875V8.35938C168.125 8.35938 167.906 8.3125 167.469 8.21875C167.042 8.125 166.5 8.02083 165.844 7.90625C165.198 7.79167 164.526 7.6875 163.828 7.59375C163.141 7.5 162.536 7.45312 162.016 7.45312C161.536 7.45312 161.177 7.53646 160.938 7.70312C160.698 7.86979 160.578 8.06771 160.578 8.29688C160.578 8.48438 160.682 8.69271 160.891 8.92188C161.099 9.14062 161.349 9.3125 161.641 9.4375C162.734 9.91667 163.766 10.4062 164.734 10.9062C165.703 11.4062 166.557 11.9844 167.297 12.6406C168.036 13.2969 168.615 14.099 169.031 15.0469C169.458 15.9844 169.672 17.1354 169.672 18.5C169.672 20.125 169.26 21.5417 168.438 22.75C167.625 23.9583 166.448 24.8958 164.906 25.5625C163.375 26.2292 161.526 26.5625 159.359 26.5625C157.495 26.5625 155.958 26.474 154.75 26.2969C153.542 26.1198 152.594 25.9219 151.906 25.7031C151.803 25.6686 151.705 25.6329 151.61 25.5996L154.449 18.9443C154.664 18.9955 154.879 19.046 155.094 19.0938C155.854 19.25 156.5 19.3281 157.031 19.3281C157.49 19.3281 157.865 19.2604 158.156 19.125C158.448 18.9896 158.594 18.7396 158.594 18.375C158.594 17.9792 158.385 17.6198 157.969 17.2969C157.552 16.974 157.016 16.6406 156.359 16.2969C156.153 16.1868 155.943 16.0689 155.727 15.9492L159.46 7.19629L159.86 6.25684L158.873 6.5166L150.178 8.80371L151.344 3.8877C151.895 3.16131 152.571 2.55743 153.375 2.07812C154.417 1.45312 155.583 1 156.875 0.71875C158.177 0.4375 159.51 0.296875 160.875 0.296875Z" fill="#0088FF"/>
<path d="M211.906 1H229.891V8.1875H221.625V10.2344H229.859V16.3594H221.625V18.7188H230.438V25.9531H211.906V1Z" fill="#0088FF"/>
<path d="M185.5 1H209.125V9.09375H202.172V25.9531H192.453V9.09375H185.5V1Z" fill="#0088FF"/>
<path d="M182.719 25.9531H173V1H182.719V25.9531Z" fill="#0088FF"/>
</svg>
